<?xml version="1.0" encoding="UTF-8" standalone="no"?>
<svg
   enable-background="new 0 0 100 100"
   height="81.47619040410632"
   version="1.1"
   width="72.30158720547502"
   xml:space="preserve"
   style=""
   id="svg16"
   sodipodi:docname="pBv2.svg"
   inkscape:version="1.2.1 (9c6d41e410, 2022-07-14)"
   xmlns:inkscape="http://www.inkscape.org/namespaces/inkscape"
   xmlns:sodipodi="http://sodipodi.sourceforge.net/DTD/sodipodi-0.dtd"
   xmlns="http://www.w3.org/2000/svg"
   xmlns:svg="http://www.w3.org/2000/svg"><defs
     id="defs20"><inkscape:path-effect
       effect="skeletal"
       id="path-effect3780"
       is_visible="true"
       lpeversion="1"
       pattern="M 0,18.867925 C 0,8.4528302 8.4528302,0 18.867925,0 c 10.415094,0 18.867924,8.4528302 18.867924,18.867925 0,10.415094 -8.45283,18.867924 -18.867924,18.867924 C 8.4528302,37.735849 0,29.283019 0,18.867925 Z"
       copytype="single_stretched"
       prop_scale="1"
       scale_y_rel="false"
       spacing="0"
       normal_offset="0"
       tang_offset="0"
       prop_units="false"
       vertical_pattern="false"
       hide_knot="false"
       fuse_tolerance="0" /><inkscape:path-effect
       effect="bspline"
       id="path-effect3778"
       is_visible="true"
       lpeversion="1"
       weight="33.333333"
       steps="2"
       helper_size="0"
       apply_no_weight="true"
       apply_with_weight="true"
       only_selected="false" /><inkscape:path-effect
       effect="skeletal"
       id="path-effect3774"
       is_visible="true"
       lpeversion="1"
       pattern="M 0,18.867925 C 0,8.4528302 8.4528302,0 18.867925,0 c 10.415094,0 18.867924,8.4528302 18.867924,18.867925 0,10.415094 -8.45283,18.867924 -18.867924,18.867924 C 8.4528302,37.735849 0,29.283019 0,18.867925 Z"
       copytype="single_stretched"
       prop_scale="1"
       scale_y_rel="false"
       spacing="0"
       normal_offset="0"
       tang_offset="0"
       prop_units="false"
       vertical_pattern="false"
       hide_knot="false"
       fuse_tolerance="0" /><inkscape:path-effect
       effect="bspline"
       id="path-effect3772"
       is_visible="true"
       lpeversion="1"
       weight="33.333333"
       steps="2"
       helper_size="0"
       apply_no_weight="true"
       apply_with_weight="true"
       only_selected="false" /><linearGradient
       id="linearGradient3760"
       inkscape:swatch="solid"><stop
         style="stop-color:#000000;stop-opacity:1;"
         offset="0"
         id="stop3758" /></linearGradient><inkscape:path-effect
       effect="bspline"
       id="path-effect309"
       is_visible="true"
       lpeversion="1"
       weight="33.333333"
       steps="2"
       helper_size="0"
       apply_no_weight="true"
       apply_with_weight="true"
       only_selected="false" /></defs><sodipodi:namedview
     id="namedview18"
     pagecolor="#ffffff"
     bordercolor="#999999"
     borderopacity="1"
     inkscape:showpageshadow="0"
     inkscape:pageopacity="0"
     inkscape:pagecheckerboard="0"
     inkscape:deskcolor="#d1d1d1"
     showgrid="false"
     inkscape:zoom="12.248977"
     inkscape:cx="0.24491841"
     inkscape:cy="39.554324"
     inkscape:window-width="2560"
     inkscape:window-height="1361"
     inkscape:window-x="1911"
     inkscape:window-y="-9"
     inkscape:window-maximized="1"
     inkscape:current-layer="svg16" /><rect
     id="backgroundrect"
     width="100%"
     height="100%"
     x="0"
     y="0"
     fill="none"
     stroke="none"
     style=""
     class="" /><path
     style="fill:none;stroke:#000000;stroke-width:4.2;stroke-linecap:round;stroke-dasharray:none;stroke-opacity:1"
     d="m 28.017278,13.144861 c 3.594173,-1.614721 7.187658,-3.2291321 10.945291,-4.3933221 3.757633,-1.1641899 7.678866,-1.8782422 11.2662,-2.2248241 3.587333,-0.3465819 6.840316,-0.3258847 9.273893,-0.1446259 2.433577,0.1812588 4.047462,0.5227623 5.291213,0.9710279 1.243751,0.4482656 2.116907,1.002391 2.695976,1.7244293 0.579069,0.7220384 0.864008,1.6106579 0.924986,2.6268789 0.06098,1.016222 -0.10157,2.160126 -1.065349,3.59575 -0.963779,1.435623 -2.728965,3.163837 -4.733654,4.819594 -2.00469,1.655756 -4.248999,3.23909 -6.65729,4.93631 -2.40829,1.697219 -4.980417,3.508222 -8.29196,5.793384 -3.311543,2.285162 -7.362313,5.044345 -9.356077,6.424099 -1.993764,1.379754 -1.931349,1.379754 -1.748842,1.321061 0.182508,-0.05869 0.485636,-0.175775 1.751616,-0.7795 1.26598,-0.603726 3.494863,-1.694042 5.33163,-2.477028 1.836766,-0.782986 3.281081,-1.258627 4.640887,-1.57688 1.359806,-0.318252 2.634728,-0.479239 3.691377,-0.512014 1.056649,-0.03278 1.894708,0.06235 2.616931,0.223545 0.722222,0.161192 1.328481,0.388038 1.7875,0.651782 0.45902,0.263745 0.771064,0.563765 1.133854,0.92235 0.36279,0.358584 0.776326,0.775676 1.070014,1.294685 0.293688,0.51901 0.468302,1.139734 0.403901,1.76126 -0.0644,0.621526 -0.367267,1.244773 -0.79505,1.958767 -0.427783,0.713994 -0.980546,1.518925 -1.756057,2.334694 -0.775511,0.815769 -1.77405,1.642652 -3.849718,3.149262 -2.075668,1.506611 -5.228448,3.692899 -9.014672,6.259018 -3.786223,2.566119 -8.205589,5.511856 -12.998755,8.551484 -4.793167,3.039628 -9.959733,6.172865 -14.344517,8.856451 -4.384784,2.683586 -7.9876644,4.917454 -11.5910086,7.15161"
     id="path307"
     inkscape:path-effect="#path-effect309"
     inkscape:original-d="m 28.017278,13.144861 c 3.594795,-1.613336 7.18828,-3.2277481 10.780456,-4.8432348 3.9227,-0.7130048 7.843933,-1.4270575 11.763935,-2.1421998 3.254426,0.021773 6.507409,0.04247 9.75915,0.062093 1.615258,0.3425927 3.229143,0.684096 4.841749,1.0245305 0.874893,0.5555929 1.748049,1.1097183 2.620888,1.6632777 0.28608,0.8900594 0.571019,1.7786794 0.855034,2.6665364 -0.161554,1.144942 -0.324103,2.288846 -0.487656,3.431779 -1.763945,1.729361 -3.529132,3.457573 -5.295662,5.184746 -2.243086,1.584472 -4.487395,3.167806 -6.733057,4.750094 -2.57092,1.812152 -5.143048,3.623154 -7.716537,5.433118 -4.049622,2.760368 -8.100392,5.519551 -12.152555,8.277715 0.06372,0.001 0.126135,0.001 0.18723,0 0.304451,-0.116011 0.607579,-0.233092 0.909403,-0.35125 2.230283,-1.089283 4.459166,-2.179599 6.686784,-3.271013 1.445685,-0.474584 2.89,-0.950225 4.333036,-1.426952 1.276282,-0.159917 2.551204,-0.320903 3.82484,-0.482968 0.839405,0.0962 1.677463,0.191336 2.514232,0.285391 0.607588,0.227928 1.213847,0.454773 1.818804,0.680546 0.313366,0.301107 0.62541,0.601127 0.936149,0.900077 0.414873,0.418193 0.828408,0.835285 1.24066,1.251327 0.175934,0.621836 0.350548,1.242561 0.523863,1.862246 -0.301567,0.62435 -0.604432,1.247597 -0.908615,1.869782 -0.551474,0.806039 -1.104237,1.610969 -1.658323,2.414842 -0.997268,0.827991 -1.995807,1.654874 -2.995677,2.480699 -3.151599,2.187452 -6.304379,4.373741 -9.458534,6.559001 -4.418321,2.946988 -8.837686,5.892726 -13.258627,8.837562 -5.165462,3.134438 -10.332029,6.267674 -15.50001,9.399898 -3.60157,2.234945 -7.20445,4.468814 -10.8086406,6.701605"
     sodipodi:nodetypes="ccccccccccccccccccccccccccccc" /><path
     style="fill:none;stroke:#000000;stroke-width:4.2;stroke-linecap:round;stroke-linejoin:round;stroke-dasharray:none;stroke-opacity:1;paint-order:normal"
     d="m 17.589611,59.502814 22.71385,-45.064705 c 0,0 7.764238,-2.067642 11.706706,-2.484322 4.779769,-0.505171 6.199439,1.503829 5.252152,3.237755 -0.998678,1.827994 -5.387652,5.274029 -11.877323,9.700448 -1.118279,0.762747 -30.345895,19.472802 -30.345895,19.472802"
     id="path3784"
     sodipodi:nodetypes="ccsssc" /></svg>
