<svg xmlns="http://www.w3.org/2000/svg" xmlns:xlink="http://www.w3.org/1999/xlink" enable-background="new 0 0 100 100" height="81.47619040410632" version="1.1" width="72.30158720547502" xml:space="preserve" style=""><rect id="backgroundrect" width="100%" height="100%" x="0" y="0" fill="none" stroke="none" style="" class=""/><g class="currentLayer" style=""><title>Layer 1</title><g id="Layer_1" class=""><g id="svg_1"><polygon fill="#205B98" points="36.77448630332947,55.821786522865295 61.93848776817322,61.91179430484772 61.93848776817322,14.664788842201233 36.77448630332947,20.75678789615631 " id="svg_2"/><polygon fill="#5294CF" points="61.93648886680603,14.664788842201233 66.77248740196228,17.082788109779358 66.77248740196228,59.507794976234436 61.93648886680603,61.92379534244537 " id="svg_3"/><polygon fill="#5294CF" points="36.77448630332947,55.821786522865295 11.608486890792847,61.91179430484772 11.608486890792847,14.664788842201233 36.77448630332947,20.75678789615631 " id="svg_4"/><polygon fill="#205B98" points="11.608486890792847,14.664788842201233 6.772486448287964,17.082788109779358 6.772486448287964,59.507794976234436 11.608486890792847,61.92379534244537 " id="svg_5"/><polygon fill="#5294CF" points="43.21548819541931,71.41578829288483 52.77048850059509,66.63878786563873 52.77048850059509,10.080788254737854 43.21548819541931,5.303788781166077 40.213489294052124,36.74378740787506 " id="svg_6"/><polygon fill="#205B98" points="30.32948660850525,71.41578829288483 20.77648901939392,66.63878786563873 20.77648901939392,10.080788254737854 30.32948660850525,5.303788781166077 33.33348822593689,36.63479006290436 " id="svg_7"/><rect fill="#2D72B8" height="66.11100006103516" width="12.88700008392334" x="30.329485654830933" y="5.303788542747498" id="svg_8"/></g></g></g></svg>