<?xml version="1.0" encoding="utf-8"?>
<!-- Svg Vector Icons : http://www.onlinewebfonts.com/icon -->
<!DOCTYPE svg PUBLIC "-//W3C//DTD SVG 1.1//EN" "http://www.w3.org/Graphics/SVG/1.1/DTD/svg11.dtd">
<svg version="1.1" xmlns="http://www.w3.org/2000/svg" xmlns:xlink="http://www.w3.org/1999/xlink" x="0px" y="0px" viewBox="0 0 1000 1000" enable-background="new 0 0 1000 1000" xml:space="preserve">
<metadata> Svg Vector Icons : http://www.onlinewebfonts.com/icon </metadata>
<g><g transform="translate(0.000000,511.000000) scale(0.100000,-0.100000)"><path d="M359.5,4455.8c-97.6-44-212.4-170.3-237.3-264.1c-30.6-105.2-28.7-5937.9,0-6043.1c28.7-101.4,174.1-246.9,275.6-275.6c51.7-13.4,399.9-21,1056.3-21h979.8l5.7-926.2l5.7-926.2l57.4-82.3c36.4-51.7,95.7-103.3,160.7-135.9l101.4-53.6h3400.5c3245.4,0,3402.4,1.9,3475.1,36.4c97.6,44,212.4,170.3,237.3,264.1c30.6,105.2,28.7,5937.9,0,6043.1c-28.7,101.4-174.1,246.9-275.6,275.6c-51.7,13.4-399.9,21-1056.3,21h-979.7l-5.7,926.2l-5.7,926.2l-57.4,84.2c-38.3,53.6-93.8,99.5-160.8,135.9l-105.2,51.7H3834.6C587.3,4492.1,432.2,4490.2,359.5,4455.8z M2512.3,2779.5v-373.1H1498.1H483.9v373.1v373.1h1014.2h1014.2V2779.5z M4846.9,2779.5v-373.1H3832.7H2818.5v359.8c0,199,5.7,367.4,13.4,373.1c5.7,7.7,463.1,13.4,1014.2,13.4h1000.8V2779.5z M7181.5,2779.5v-373.1H6167.3H5153.1v359.8c0,199,5.7,367.4,13.4,373.1c5.7,7.7,463.1,13.4,1014.2,13.4h1000.8V2779.5z M2439.6,1751.9c-1.9-193.3-9.6-361.7-13.4-373.1c-5.7-19.1-218.1-24.9-975.9-24.9H483.9V1727v373.1h981.7h979.8L2439.6,1751.9z M2432,680.2l-5.7-369.3l-970.2-5.7l-972.1-3.8v373.2v373.1h975.9h975.9L2432,680.2z M4837.3,664.9v-354H3832.7H2828.1l-5.7,334.9c-1.9,183.7,0,344.4,3.8,357.8c7.7,21,206.7,24.9,1010.4,21l1000.8-5.7V664.9z M7171.9,664.9v-354H6167.3H5162.6l-5.7,334.9c-1.9,183.7,0,344.4,3.8,357.8c7.6,21,206.7,24.9,1010.4,21l1000.8-5.7V664.9z M9516.1,655.4V282.2h-975.9h-975.9V642c0,199,5.7,367.4,13.4,373.1c5.7,7.7,445.9,13.4,975.9,13.4h962.5V655.4z M2435.8-368.4V-732h-975.9H483.9v363.6V-4.8h975.9h975.9V-368.4z M4841.2-381.8l1.9-350.2H3830.8H2818.5v354v354l1010.4-3.8l1008.5-5.7L4841.2-381.8z M7181.5-378v-354H6167.3H5153.1v340.6c0,187.5,5.7,348.3,13.4,354c5.7,7.7,463.1,13.4,1014.2,13.4h1000.8V-378z M9516.1-397.1v-373.2h-975.9h-975.9v373.2v373.2h975.9h975.9V-397.1z M2432-1415.1l3.8-369.3h-975.9H483.9v373.1v373.2l972.1-3.8l970.2-5.7L2432-1415.1z M4843.1-1430.4l-1.9-354H3828.9H2818.5v354v354h1014.2h1014.2L4843.1-1430.4z M7181.5-1430.4v-354H6167.3H5153.1v354v354h1014.2h1014.2V-1430.4z M9516.1-1449.6v-373.2h-975.9h-975.9v373.2v373.2h975.9h975.9V-1449.6z M9516.1-2492.5v-363.6H8501.9H7487.7v363.6v363.6h1014.2h1014.2V-2492.5z M4845-2502.1v-354H3832.7H2818.5v354v354h1014.2H4845V-2502.1z M7181.5-2502.1v-354H6167.3H5153.1v354v354h1014.2h1014.2V-2502.1z M4841.2-3539.2l5.7-369.3H3832.7H2818.5v373.2v373.1l1010.4-3.8l1008.5-5.7L4841.2-3539.2z M7177.7-3539.2l3.8-369.3H6167.3H5153.1v373.2v373.1l1010.4-3.8l1008.5-5.7L7177.7-3539.2z M9516.1-3535.4v-373.2H8501.9H7487.7v373.2v373.1h1014.2h1014.2V-3535.4z"/></g></g>
</svg>