<svg xmlns="http://www.w3.org/2000/svg" xmlns:xlink="http://www.w3.org/1999/xlink" version="1.1" enable-background="new 0 0 1000 1000" xml:space="preserve" width="1000" height="1000" style=""><rect id="backgroundrect" width="100%" height="100%" x="0" y="0" fill="none" stroke="none"/>
<metadata> Svg Vector Icons : http://www.onlinewebfonts.com/icon </metadata>

<g class="currentLayer" style=""><title>Layer 1</title><g id="svg_1" class="selected" filter="" fill="#ffffff" fill-opacity="1"><g transform="translate(0,511) scale(0.10000000149011612,-0.10000000149011612) " id="svg_2" filter="" fill="#ffffff" fill-opacity="1"><path d="M367.8333330154419,4447.466666984558 c-97.6,-44 -212.4,-170.3 -237.3,-264.1 c-30.6,-105.2 -28.7,-5937.9 0,-6043.1 c28.7,-101.4 174.1,-246.9 275.6,-275.6 c51.7,-13.4 399.9,-21 1056.3,-21 h979.8 l5.7,-926.2 l5.7,-926.2 l57.4,-82.3 c36.4,-51.7 95.7,-103.3 160.7,-135.9 l101.4,-53.6 h3400.5 c3245.4,0 3402.4,1.9 3475.1,36.4 c97.6,44 212.4,170.3 237.3,264.1 c30.6,105.2 28.7,5937.9 0,6043.1 c-28.7,101.4 -174.1,246.9 -275.6,275.6 c-51.7,13.4 -399.9,21 -1056.3,21 h-979.7 l-5.7,926.2 l-5.7,926.2 l-57.4,84.2 c-38.3,53.6 -93.8,99.5 -160.8,135.9 l-105.2,51.7 H3842.933333015442 C595.6333330154418,4483.7666669845585 440.5333330154419,4481.866666984558 367.8333330154419,4447.466666984558 zM2520.633333015442,2771.166666984558 v-373.1 H1506.4333330154418 H492.2333330154419 v373.1 v373.1 h1014.2 h1014.2 V2771.166666984558 zM4855.2333330154415,2771.166666984558 v-373.1 H3841.0333330154417 H2826.833333015442 v359.8 c0,199 5.7,367.4 13.4,373.1 c5.7,7.7 463.1,13.4 1014.2,13.4 h1000.8 V2771.166666984558 zM7189.833333015442,2771.166666984558 v-373.1 H6175.633333015442 H5161.433333015442 v359.8 c0,199 5.7,367.4 13.4,373.1 c5.7,7.7 463.1,13.4 1014.2,13.4 h1000.8 V2771.166666984558 zM2447.933333015442,1743.5666669845582 c-1.9,-193.3 -9.6,-361.7 -13.4,-373.1 c-5.7,-19.1 -218.1,-24.9 -975.9,-24.9 H492.2333330154419 V1718.666666984558 v373.1 h981.7 h979.8 L2447.933333015442,1743.5666669845582 zM2440.333333015442,671.8666669845582 l-5.7,-369.3 l-970.2,-5.7 l-972.1,-3.8 v373.2 v373.1 h975.9 h975.9 L2440.333333015442,671.8666669845582 zM4845.633333015442,656.5666669845581 v-354 H3841.0333330154417 H2836.433333015442 l-5.7,334.9 c-1.9,183.7 0,344.4 3.8,357.8 c7.7,21 206.7,24.9 1010.4,21 l1000.8,-5.7 V656.5666669845581 zM7180.2333330154415,656.5666669845581 v-354 H6175.633333015442 H5170.933333015442 l-5.7,334.9 c-1.9,183.7 0,344.4 3.8,357.8 c7.6,21 206.7,24.9 1010.4,21 l1000.8,-5.7 V656.5666669845581 zM9524.433333015442,647.0666669845581 V273.8666669845581 h-975.9 h-975.9 V633.6666669845581 c0,199 5.7,367.4 13.4,373.1 c5.7,7.7 445.9,13.4 975.9,13.4 h962.5 V647.0666669845581 zM2444.133333015442,-376.7333330154419 V-740.3333330154419 h-975.9 H492.2333330154419 v363.6 V-13.133333015441895 h975.9 h975.9 V-376.7333330154419 zM4849.533333015442,-390.1333330154419 l1.9,-350.2 H3839.133333015442 H2826.833333015442 v354 v354 l1010.4,-3.8 l1008.5,-5.7 L4849.533333015442,-390.1333330154419 zM7189.833333015442,-386.3333330154419 v-354 H6175.633333015442 H5161.433333015442 v340.6 c0,187.5 5.7,348.3 13.4,354 c5.7,7.7 463.1,13.4 1014.2,13.4 h1000.8 V-386.3333330154419 zM9524.433333015442,-405.4333330154419 v-373.2 h-975.9 h-975.9 v373.2 v373.2 h975.9 h975.9 V-405.4333330154419 zM2440.333333015442,-1423.4333330154418 l3.8,-369.3 h-975.9 H492.2333330154419 v373.1 v373.2 l972.1,-3.8 l970.2,-5.7 L2440.333333015442,-1423.4333330154418 zM4851.433333015442,-1438.733333015442 l-1.9,-354 H3837.233333015442 H2826.833333015442 v354 v354 h1014.2 h1014.2 L4851.433333015442,-1438.733333015442 zM7189.833333015442,-1438.733333015442 v-354 H6175.633333015442 H5161.433333015442 v354 v354 h1014.2 h1014.2 V-1438.733333015442 zM9524.433333015442,-1457.9333330154418 v-373.2 h-975.9 h-975.9 v373.2 v373.2 h975.9 h975.9 V-1457.9333330154418 zM9524.433333015442,-2500.833333015442 v-363.6 H8510.233333015442 H7496.033333015442 v363.6 v363.6 h1014.2 h1014.2 V-2500.833333015442 zM4853.333333015442,-2510.433333015442 v-354 H3841.0333330154417 H2826.833333015442 v354 v354 h1014.2 H4853.333333015442 V-2510.433333015442 zM7189.833333015442,-2510.433333015442 v-354 H6175.633333015442 H5161.433333015442 v354 v354 h1014.2 h1014.2 V-2510.433333015442 zM4849.533333015442,-3547.5333330154417 l5.7,-369.3 H3841.0333330154417 H2826.833333015442 v373.2 v373.1 l1010.4,-3.8 l1008.5,-5.7 L4849.533333015442,-3547.5333330154417 zM7186.033333015442,-3547.5333330154417 l3.8,-369.3 H6175.633333015442 H5161.433333015442 v373.2 v373.1 l1010.4,-3.8 l1008.5,-5.7 L7186.033333015442,-3547.5333330154417 zM9524.433333015442,-3543.733333015442 v-373.2 H8510.233333015442 H7496.033333015442 v373.2 v373.1 h1014.2 h1014.2 V-3543.733333015442 z" id="svg_3" filter="" fill="#ffffff" fill-opacity="1"/></g></g></g><defs><filter id="f039" xmlns:inkscape="http://www.inkscape.org/namespaces/inkscape" inkscape:label="Inset" inkscape:menu="Shadows and Glows" inkscape:menu-tooltip="Shadowy outer bevel" color-interpolation-filters="sRGB">
            <feMorphology result="result1" in="SourceAlpha" operator="dilate" radius="3.6"/>
            <feGaussianBlur stdDeviation="3.6" in="result1" result="result0"/>
            <feDiffuseLighting surfaceScale="-5">
                <feDistantLight elevation="45" azimuth="225"/>
            </feDiffuseLighting>
            <feComposite in2="result0" operator="in" result="result91"/>
            <feComposite in="SourceGraphic" in2="result91"/>
        </filter></defs></svg>